<svg width="181" height="168" viewBox="0 0 181 168" fill="none" xmlns="http://www.w3.org/2000/svg">
<path d="M90.2656 0.0126953L90.2705 0.00195312L90.5322 0.443359V0.460938L91.4551 2.0166L96.0596 9.99219L108.965 32.5391C109.514 33.4976 110.746 33.8478 111.717 33.3213L129.089 23.9004L123.358 70.5654C123.12 72.5061 124.5 74.2732 126.44 74.5117C127.431 74.6334 128.375 74.3306 129.095 73.749C129.195 73.6926 129.291 73.6258 129.379 73.5439L131.866 71.2207L132.429 70.7197L145.796 56.0742L148.65 65.5977C149.126 67.1846 150.75 67.9509 152.277 67.3096L177.388 56.7646L169.119 82.7129C168.616 84.2911 169.524 85.84 171.146 86.1729L180.532 88.0957L152.023 119.635C151.882 119.791 151.751 119.954 151.629 120.12L149.663 122.23C148.917 123.031 148.696 124.13 148.979 125.109C148.968 125.522 149.02 125.944 149.145 126.361L152.19 136.564H151.553L97.0127 132.617C96.8472 132.583 96.6757 132.564 96.5 132.564C96.4521 132.564 96.4047 132.569 96.3574 132.571C95.6016 132.527 94.9174 132.91 94.542 133.513C94.3328 133.776 94.1764 134.083 94.0869 134.417C94.0688 134.465 94.0536 134.514 94.041 134.564H94V167.564H86.5322V134.564H86.4912C86.4786 134.514 86.4634 134.465 86.4453 134.417C86.3558 134.083 86.1994 133.776 85.9902 133.513C85.6149 132.91 84.9306 132.527 84.1748 132.571C84.1276 132.569 84.0801 132.564 84.0322 132.564C83.8565 132.564 83.685 132.583 83.5195 132.617L28.9795 136.564H28.3418L31.3877 126.361C31.5123 125.944 31.5647 125.522 31.5537 125.109C31.8365 124.13 31.615 123.031 30.8691 122.23L28.9033 120.12C28.7814 119.954 28.6503 119.791 28.5088 119.635L0 88.0957L9.38574 86.1729C11.0083 85.84 11.9159 84.2911 11.4131 82.7129L3.14453 56.7646L28.2549 67.3096C29.7823 67.9509 31.4062 67.1846 31.8818 65.5977L34.7363 56.0742L48.1035 70.7197L48.666 71.2207L51.1533 73.5439C51.241 73.6258 51.3374 73.6926 51.4375 73.749C52.1572 74.3306 53.1009 74.6334 54.0918 74.5117C56.0324 74.2732 57.4122 72.5061 57.1738 70.5654L51.4434 23.9004L68.8154 33.3213C69.7864 33.8478 71.0186 33.4976 71.5674 32.5391L87.9443 3.92676L90 0.460938V0.4375L90.2578 0L90.2656 0.0126953Z" fill="#C33C3C"/>
<path d="M69 121H53V98H69V121Z" fill="white"/>
<path d="M88 121H72V86H88V121Z" fill="white"/>
<path d="M107 121H91V95H107V121Z" fill="white"/>
<path d="M126 121H110V78H126V121Z" fill="white"/>
<path d="M115.935 73.8555L114.388 72.0244L98.5732 85.3857L98.5713 85.3838L80.0469 72.6143L56.335 88.501C55.6467 88.962 54.715 88.7781 54.2539 88.0898C53.7929 87.4016 53.9769 86.4699 54.665 86.0088L80.0703 68.9893L80.0723 68.9883L98.3867 81.6143L112.452 69.7334L110.904 67.9014L118.011 67L115.935 73.8555Z" fill="white"/>
</svg>
